<svg xmlns="http://www.w3.org/2000/svg" width="34" height="34" fill="none"><path fill="#454747" fill-rule="evenodd" d="M4.733 5.23c6.5-6.774 17.261-6.997 24.036-.497 6.775 6.5 6.998 17.261.498 24.036-6.5 6.775-17.261 6.998-24.036.498-6.775-6.5-6.998-17.261-.498-24.036Zm20.111.057c-3.91.08-6.97 5.409-6.837 11.901.133 6.493 3.412 11.69 7.321 11.61 3.91-.08 6.972-5.409 6.838-11.901-.133-6.493-3.412-11.69-7.321-11.61Zm-15.67.183c-3.91.08-6.972 5.408-6.838 11.9.133 6.493 3.412 11.692 7.321 11.611 3.91-.08 6.972-5.41 6.838-11.902-.134-6.492-3.412-11.69-7.322-11.61Z" clip-rule="evenodd"/></svg>