<svg xmlns="http://www.w3.org/2000/svg" width="34" height="34" fill="none"><g fill="#454747" clip-path="url(#a)"><path d="M-6.62 28.586c0-6.315 5.12-11.434 11.434-11.434 6.315 0 11.434 5.12 11.434 11.434 0 6.315-5.12 11.434-11.434 11.434C-1.5 40.02-6.62 34.9-6.62 28.586Zm24.071 0c0-6.315 5.12-11.434 11.434-11.434 6.314 0 11.434 5.12 11.434 11.434 0 6.315-5.12 11.434-11.434 11.434-6.315 0-11.434-5.12-11.434-11.434ZM-6.62 5.113C-6.62-1.2-1.5-6.32 4.814-6.32c6.315 0 11.434 5.119 11.434 11.433 0 6.315-5.12 11.434-11.434 11.434-6.314 0-11.434-5.12-11.434-11.434Zm24.071 0c0-6.314 5.12-11.433 11.434-11.433 6.314 0 11.434 5.119 11.434 11.433 0 6.315-5.12 11.434-11.434 11.434-6.315 0-11.434-5.12-11.434-11.434Z"/></g><defs><clipPath id="a"><rect width="34" height="34" fill="#fff" rx="17"/></clipPath></defs></svg>