<svg xmlns="http://www.w3.org/2000/svg" width="34" height="34" fill="none"><path fill="#454747" d="M17 0c9.389 0 17 7.611 17 17s-7.611 17-17 17S0 26.389 0 17 7.611 0 17 0Zm13.028 17.422c-1.91-2.038-6.27-1.055-9.74 2.196-3.47 3.251-4.734 7.539-2.824 9.577 1.91 2.039 6.27 1.055 9.74-2.196 3.47-3.251 4.734-7.539 2.824-9.577ZM20.895 4.408c-3.182-3.395-9.467-2.676-14.038 1.607-4.57 4.282-5.697 10.507-2.515 13.903 3.182 3.396 9.466 2.676 14.037-1.607 4.57-4.282 5.697-10.507 2.515-13.903Zm9.038 5.29c-.841-1.747-2.587-2.65-3.9-2.018-1.312.632-1.695 2.56-.854 4.306.84 1.747 2.587 2.65 3.9 2.018 1.312-.632 1.694-2.56.854-4.307Z"/></svg>