<svg xmlns="http://www.w3.org/2000/svg" width="34" height="34" fill="none"><path fill="#454747" fill-rule="evenodd" d="M25.875 0C30.362 0 34 3.624 34 8.095v17.81C34 30.375 30.362 34 25.875 34H8.125C3.638 34 0 30.376 0 25.905V8.095C0 3.625 3.638 0 8.125 0h17.75Zm4.328 4.076C26.11-.088 16.883 2.304 9.59 9.418c-7.293 7.115-9.888 16.257-5.796 20.42 4.092 4.164 13.32 1.772 20.613-5.342 7.293-7.114 9.888-16.257 5.796-20.42Z" clip-rule="evenodd"/><path fill="#454747" d="M28.5 7.099c0 .894-.727 1.619-1.625 1.619a1.622 1.622 0 0 1-1.625-1.62c0-.893.727-1.618 1.625-1.618s1.625.725 1.625 1.619Z"/></svg>